# xmcd
#
# Track frame offsets:
# 182
# 13757
# 36782
# 57732
# 71782
# 87457
# 103432
# 115270
# 130482
# 147545
# 160157
# 174432
#
# Disc length: 2560 seconds
#
#
# Revision: 0
# Processed by: cddbd v1.5.2PL0 Copyright (c) Steve Scherf et al.
# Submitted via: Nero 7, 11, 10, 0 
#
DISCID=b909fe0c
DTITLE=Clifford Curry - Clifford's Blues
DYEAR=1995
DGENRE=Blues
TTITLE0=Clifford's Blues
TTITLE1=Good Lovin' Woman
TTITLE2=Love Recession
TTITLE3=Beulah
TTITLE4=Welfare Blues
TTITLE5=Slow Dance To The Blues
TTITLE6=Set Me Free
TTITLE7=Stacked In The Back
TTITLE8=Down The Road I'll Go
TTITLE9=You're What's Happening
TTITLE10=Blues I Can't Lose
TTITLE11=My Grandmomma
EXTD=
EXTT0=Clifford's Blues
EXTT1=Good Lovin' Woman
EXTT2=Love Recession
EXTT3=Beulah
EXTT4=Welfare Blues
EXTT5=Slow Dance To The Blues
EXTT6=Set Me Free
EXTT7=Stacked In The Back
EXTT8=Down The Road I'll Go
EXTT9=You're What's Happening
EXTT10=Blues I Can't Lose
EXTT11=My Grandmomma
PLAYORDER=
